<svg width="24" height="24" viewBox="0 0 24 24" fill="none" xmlns="http://www.w3.org/2000/svg">
<path d="M6.99993 20.9808C5.63398 20.8759 4.3361 20.3421 3.29159 19.4556C2.24709 18.5692 1.50937 17.3753 1.18379 16.0446C0.858208 14.7139 0.961403 13.3143 1.47864 12.0457C1.99588 10.7772 2.90071 9.70445 4.06393 8.98076C4.31145 7.05085 5.25373 5.27727 6.71445 3.99192C8.17517 2.70658 10.0542 1.99756 11.9999 1.99756C13.9457 1.99756 15.8247 2.70658 17.2854 3.99192C18.7461 5.27727 19.6884 7.05085 19.9359 8.98076C21.0992 9.70445 22.004 10.7772 22.5212 12.0457C23.0385 13.3143 23.1417 14.7139 22.8161 16.0446C22.4905 17.3753 21.7528 18.5692 20.7083 19.4556C19.6638 20.3421 18.3659 20.8759 16.9999 20.9808V20.9998H6.99993V20.9808ZM12.9999 12.9998H15.9999L11.9999 7.99976L7.99993 12.9998H10.9999V16.9998H12.9999V12.9998Z" fill="white"/>
</svg>
